<?xml version="1.0" standalone="no"?>
<!DOCTYPE svg PUBLIC "-//W3C//DTD SVG 20010904//EN"
 "http://www.w3.org/TR/2001/REC-SVG-20010904/DTD/svg10.dtd">
<svg version="1.0" xmlns="http://www.w3.org/2000/svg"
 width="300.000000pt" height="300.000000pt" viewBox="0 0 300.000000 300.000000"
 preserveAspectRatio="xMidYMid meet">
<metadata>
Created by potrace 1.16, written by Peter Selinger 2001-2019
</metadata>
<g transform="translate(0.000000,300.000000) scale(0.100000,-0.100000)"
fill="#000000" stroke="none">
<path d="M185 2891 c-46 -11 -88 -36 -123 -72 l-32 -33 0 -891 0 -891 38 -36
c68 -66 81 -68 401 -68 l286 0 430 211 c237 116 468 230 515 254 47 24 186 94
310 155 187 92 222 113 209 123 -93 71 -789 630 -787 633 2 1 94 43 206 94
119 53 207 88 215 83 6 -4 206 -170 442 -368 237 -198 482 -404 545 -457 l115
-96 3 629 c2 711 9 655 -81 705 l-52 29 -301 3 -302 3 -711 -355 c-391 -196
-711 -362 -710 -369 0 -6 180 -156 399 -332 220 -176 400 -322 399 -325 0 -7
-388 -193 -403 -193 -11 0 -1063 849 -1124 908 l-23 22 108 50 c94 45 820 387
1126 531 59 28 107 53 107 56 0 9 -1170 5 -1205 -3z"/>
<path d="M2306 1192 l-639 -287 574 -3 c392 -2 586 1 612 8 20 6 53 27 72 46
l35 35 0 244 c0 135 -3 245 -7 245 -5 0 -296 -130 -647 -288z"/>
<path d="M1180 612 l0 -228 48 -47 48 -47 82 0 82 0 0 50 0 50 -40 0 -40 0 0
225 0 225 -90 0 -90 0 0 -228z"/>
<path d="M140 541 l0 -249 68 -4 c37 -2 77 -2 90 0 l22 3 0 250 0 249 -90 0
-90 0 0 -249z"/>
<path d="M330 740 l0 -50 65 0 65 0 0 -150 0 -150 -65 0 -65 0 0 -50 0 -50
103 0 103 0 52 53 52 53 0 145 0 145 -53 52 -53 52 -102 0 -102 0 0 -50z"/>
<path d="M1470 540 l0 -250 90 0 90 0 0 250 0 250 -90 0 -90 0 0 -250z"/>
<path d="M1660 740 l0 -50 60 0 60 0 0 -150 0 -150 -60 0 -60 0 0 -50 0 -50
101 0 100 0 49 53 49 52 0 145 1 145 -51 53 -51 52 -99 0 -99 0 0 -50z"/>
<path d="M737 642 l-47 -48 0 -105 0 -105 48 -47 c42 -41 53 -47 90 -47 l42 0
0 200 0 200 -43 0 c-38 0 -48 -5 -90 -48z"/>
<path d="M880 640 l0 -50 40 0 c39 0 40 -1 40 -35 0 -34 -1 -35 -40 -35 -39 0
-40 -1 -40 -35 l0 -35 125 0 125 0 0 70 c0 70 0 71 -46 120 l-47 50 -78 0 -79
0 0 -50z"/>
<path d="M2056 639 l-46 -51 0 -100 0 -99 46 -49 c42 -45 51 -50 90 -50 l44 0
0 200 0 200 -44 0 c-40 0 -48 -4 -90 -51z"/>
<path d="M2200 640 l0 -50 45 0 c45 0 45 0 45 -35 0 -35 0 -35 -45 -35 -45 0
-45 0 -45 -35 l0 -35 125 0 125 0 0 73 0 73 -48 47 -48 47 -77 0 -77 0 0 -50z"/>
<path d="M2535 493 l73 -198 86 -3 c47 -1 86 -1 86 0 0 2 -31 91 -69 198 l-69
195 -89 3 -90 3 72 -198z"/>
<path d="M2735 608 l-25 -83 36 -107 c20 -60 40 -108 45 -108 5 0 9 2 9 4 0 2
29 87 65 190 l64 186 -84 0 -84 0 -26 -82z"/>
<path d="M880 340 c0 -57 -9 -53 115 -50 81 2 115 23 115 72 l0 28 -115 0
-115 0 0 -50z"/>
<path d="M2200 340 l0 -50 93 0 c90 0 94 1 121 29 16 16 26 37 24 48 -3 16
-16 18 -121 21 l-117 3 0 -51z"/>
</g>
</svg>
